<svg xmlns="http://www.w3.org/2000/svg" viewBox="0 0 30 20">
  <rect width="30" height="20" fill="#012169"/>
  <rect width="15" height="10" fill="#012169"/>
  <g fill="#FFFFFF">
    <path d="M0 0l15 10M15 0L0 10" stroke="#FFFFFF" stroke-width="1"/>
    <path d="M7.5 0v10M0 5h15" stroke="#FFFFFF" stroke-width="2"/>
  </g>
  <g fill="#C8102E">
    <path d="M0 0l15 10M15 0L0 10" stroke="#C8102E" stroke-width="0.5"/>
    <path d="M7.5 0v10M0 5h15" stroke="#C8102E" stroke-width="1"/>
  </g>
  <g fill="#FFFFFF">
    <circle cx="22" cy="6" r="0.5"/>
    <circle cx="24" cy="8" r="0.5"/>
    <circle cx="26" cy="6" r="0.5"/>
    <circle cx="20" cy="14" r="0.5"/>
    <circle cx="25" cy="16" r="0.5"/>
    <path d="M18 12l0.5 1.5h1.5l-1.2 0.9 0.5 1.5L18 15l-1.3 0.9 0.5-1.5L16 13.5h1.5z"/>
  </g>
</svg>
