<svg xmlns="http://www.w3.org/2000/svg" viewBox="0 0 30 20">
  <rect width="30" height="20" fill="#FFFFFF"/>
  <circle cx="15" cy="10" r="4" fill="none" stroke="#CD2E3A" stroke-width="2"/>
  <path d="M15 6 A4 4 0 0 1 15 14 A2 2 0 0 0 15 10 A2 2 0 0 1 15 6" fill="#0047A0"/>
  <path d="M15 6 A4 4 0 0 0 15 14 A2 2 0 0 1 15 10 A2 2 0 0 0 15 6" fill="#CD2E3A"/>
  <g stroke="#000000" stroke-width="0.5">
    <line x1="21" y1="4" x2="24" y2="4"/>
    <line x1="21" y1="5" x2="24" y2="5"/>
    <line x1="21" y1="6" x2="23" y2="6"/>
    <line x1="6" y1="14" x2="9" y2="14"/>
    <line x1="6" y1="15" x2="9" y2="15"/>
    <line x1="7" y1="16" x2="9" y2="16"/>
  </g>
</svg>
