<svg xmlns="http://www.w3.org/2000/svg" viewBox="0 0 60 40">
  <!-- 蓝色背景 -->
  <rect width="60" height="40" fill="#012169"/>
  
  <!-- 英国国旗区域 -->
  <rect width="30" height="20" fill="#012169"/>
  <g fill="#FFFFFF">
    <path d="M0 0l30 20M30 0L0 20" stroke="#FFFFFF" stroke-width="1"/>
    <path d="M15 0v20M0 10h30" stroke="#FFFFFF" stroke-width="2"/>
  </g>
  <g fill="#C8102E">
    <path d="M0 0l30 20M30 0L0 20" stroke="#C8102E" stroke-width="0.5"/>
    <path d="M15 0v20M0 10h30" stroke="#C8102E" stroke-width="1"/>
  </g>
  
  <!-- 南十字星座 -->
  <g fill="#FFFFFF">
    <path d="M40,10 L40.8,11.6 L42.4,11.6 L41.2,12.6 L42,14.2 L40,13.2 L38,14.2 L38.8,12.6 L37.6,11.6 L39.2,11.6 Z"/>
    <path d="M48,8 L48.5,9 L49.5,9 L48.8,9.6 L49.3,10.6 L48,10 L46.7,10.6 L47.2,9.6 L46.5,9 L47.5,9 Z"/>
    <path d="M50,16 L50.5,17 L51.5,17 L50.8,17.6 L51.3,18.6 L50,18 L48.7,18.6 L49.2,17.6 L48.5,17 L49.5,17 Z"/>
    <path d="M45,22 L45.5,23 L46.5,23 L45.8,23.6 L46.3,24.6 L45,24 L43.7,24.6 L44.2,23.6 L43.5,23 L44.5,23 Z"/>
  </g>
</svg>
