<svg xmlns="http://www.w3.org/2000/svg" viewBox="0 0 60 40">
  <rect width="60" height="20" fill="#ED2939"/>
  <rect y="20" width="60" height="20" fill="#FFFFFF"/>
  <g fill="#FFFFFF">
    <!-- 新月 -->
    <circle cx="14" cy="10" r="5" fill="#FFFFFF"/>
    <circle cx="16" cy="10" r="4" fill="#ED2939"/>
    <!-- 五颗星星 -->
    <path d="M24,6 L24.8,8.4 L27.2,8.4 L25.2,9.8 L26,12.2 L24,10.8 L22,12.2 L22.8,9.8 L20.8,8.4 L23.2,8.4 Z"/>
    <path d="M30,4 L30.5,5.5 L32,5.5 L30.8,6.5 L31.3,8 L30,7 L28.7,8 L29.2,6.5 L28,5.5 L29.5,5.5 Z"/>
    <path d="M34,7 L34.5,8.5 L36,8.5 L34.8,9.5 L35.3,11 L34,10 L32.7,11 L33.2,9.5 L32,8.5 L33.5,8.5 Z"/>
    <path d="M34,13 L34.5,11.5 L36,11.5 L34.8,10.5 L35.3,9 L34,10 L32.7,9 L33.2,10.5 L32,11.5 L33.5,11.5 Z"/>
    <path d="M30,16 L30.5,14.5 L32,14.5 L30.8,13.5 L31.3,12 L30,13 L28.7,12 L29.2,13.5 L28,14.5 L29.5,14.5 Z"/>
  </g>
</svg>
