<svg xmlns="http://www.w3.org/2000/svg" viewBox="0 0 60 40">
  <!-- 红色背景 -->
  <rect width="60" height="40" fill="#DE2910"/>

  <!-- 大五角星 -->
  <g fill="#FFDE00">
    <path d="M12,8 L13.5,12 L18,12 L14.5,15 L16,19 L12,16 L8,19 L9.5,15 L6,12 L10.5,12 Z"/>

    <!-- 四颗小五角星 -->
    <path d="M20,6 L20.8,7.6 L22.4,7.6 L21.2,8.6 L22,10.2 L20,9.2 L18,10.2 L18.8,8.6 L17.6,7.6 L19.2,7.6 Z"/>
    <path d="M24,10 L24.8,11.6 L26.4,11.6 L25.2,12.6 L26,14.2 L24,13.2 L22,14.2 L22.8,12.6 L21.6,11.6 L23.2,11.6 Z"/>
    <path d="M24,16 L24.8,17.6 L26.4,17.6 L25.2,18.6 L26,20.2 L24,19.2 L22,20.2 L22.8,18.6 L21.6,17.6 L23.2,17.6 Z"/>
    <path d="M20,20 L20.8,21.6 L22.4,21.6 L21.2,22.6 L22,24.2 L20,23.2 L18,24.2 L18.8,22.6 L17.6,21.6 L19.2,21.6 Z"/>
  </g>
</svg>
