<svg xmlns="http://www.w3.org/2000/svg" viewBox="0 0 60 40">
  <!-- 红白条纹 -->
  <rect width="60" height="40" fill="#B22234"/>
  <rect y="3" width="60" height="3" fill="#FFFFFF"/>
  <rect y="9" width="60" height="3" fill="#FFFFFF"/>
  <rect y="15" width="60" height="3" fill="#FFFFFF"/>
  <rect y="21" width="60" height="3" fill="#FFFFFF"/>
  <rect y="27" width="60" height="3" fill="#FFFFFF"/>
  <rect y="33" width="60" height="3" fill="#FFFFFF"/>

  <!-- 蓝色星区 -->
  <rect width="24" height="21" fill="#3C3B6E"/>

  <!-- 50颗星星 -->
  <g fill="#FFFFFF">
    <!-- 第一行 6颗星 -->
    <path d="M3,2 L3.3,3 L4.3,3 L3.5,3.6 L3.8,4.6 L3,4 L2.2,4.6 L2.5,3.6 L1.7,3 L2.7,3 Z"/>
    <path d="M7,2 L7.3,3 L8.3,3 L7.5,3.6 L7.8,4.6 L7,4 L6.2,4.6 L6.5,3.6 L5.7,3 L6.7,3 Z"/>
    <path d="M11,2 L11.3,3 L12.3,3 L11.5,3.6 L11.8,4.6 L11,4 L10.2,4.6 L10.5,3.6 L9.7,3 L10.7,3 Z"/>
    <path d="M15,2 L15.3,3 L16.3,3 L15.5,3.6 L15.8,4.6 L15,4 L14.2,4.6 L14.5,3.6 L13.7,3 L14.7,3 Z"/>
    <path d="M19,2 L19.3,3 L20.3,3 L19.5,3.6 L19.8,4.6 L19,4 L18.2,4.6 L18.5,3.6 L17.7,3 L18.7,3 Z"/>
    <path d="M23,2 L23.3,3 L24.3,3 L23.5,3.6 L23.8,4.6 L23,4 L22.2,4.6 L22.5,3.6 L21.7,3 L22.7,3 Z"/>

    <!-- 第二行 5颗星 -->
    <path d="M5,5 L5.3,6 L6.3,6 L5.5,6.6 L5.8,7.6 L5,7 L4.2,7.6 L4.5,6.6 L3.7,6 L4.7,6 Z"/>
    <path d="M9,5 L9.3,6 L10.3,6 L9.5,6.6 L9.8,7.6 L9,7 L8.2,7.6 L8.5,6.6 L7.7,6 L8.7,6 Z"/>
    <path d="M13,5 L13.3,6 L14.3,6 L13.5,6.6 L13.8,7.6 L13,7 L12.2,7.6 L12.5,6.6 L11.7,6 L12.7,6 Z"/>
    <path d="M17,5 L17.3,6 L18.3,6 L17.5,6.6 L17.8,7.6 L17,7 L16.2,7.6 L16.5,6.6 L15.7,6 L16.7,6 Z"/>
    <path d="M21,5 L21.3,6 L22.3,6 L21.5,6.6 L21.8,7.6 L21,7 L20.2,7.6 L20.5,6.6 L19.7,6 L20.7,6 Z"/>
  </g>
</svg>
